<?xml version="1.0" encoding="UTF-8" standalone="no"?>
<!-- Created with Inkscape (http://www.inkscape.org/) -->

<svg
   xmlns:dc="http://purl.org/dc/elements/1.1/"
   xmlns:cc="http://creativecommons.org/ns#"
   xmlns:rdf="http://www.w3.org/1999/02/22-rdf-syntax-ns#"
   xmlns:svg="http://www.w3.org/2000/svg"
   xmlns="http://www.w3.org/2000/svg"
   version="1.1"
   width="1836"
   height="608"
   id="svg2">
  <metadata
     id="metadata8">
    <rdf:RDF>
      <cc:Work
         rdf:about="">
        <dc:format>image/svg+xml</dc:format>
        <dc:type
           rdf:resource="http://purl.org/dc/dcmitype/StillImage" />
        <dc:title></dc:title>
      </cc:Work>
    </rdf:RDF>
  </metadata>
  <defs
     id="defs6" />
  <g
     id="layer2">
    <path
       d="m 366.00688,127.59404 6.31652,382.85091 c 0,0 1.75458,8.42202 8.0711,16.49312 6.31651,8.0711 14.03669,8.42202 14.03669,8.42202 l 30.52982,0.35092 42.11009,52.98853 -118.61009,0 c 0,0 -18.9336,-3.49323 -34.38991,-18.94954 -11.22936,-11.22936 -13.68578,-27.37156 -13.68578,-27.37156 l -2.80734,-356.53211 c 0,0 5.26376,-30.88074 21.05505,-42.1101 28.42431,-18.94953 47.37385,-16.14219 47.37385,-16.14219 z"
       id="path2994"
       style="fill:#231f20;fill-opacity:1;stroke:#000000;stroke-width:1px;stroke-linecap:butt;stroke-linejoin:miter;stroke-opacity:1" />
    <path
       d="m 502.16285,127.59404 62.4633,0.35091 1.40367,391.27294 c 0,0 9.82569,18.94954 32.98624,19.30046 23.16055,0.35092 37.54816,-18.24771 37.54816,-18.24771 l 1.05275,-391.97477 63.51606,0.35092 -1.75459,408.11697 c 0,0 -4.91284,54.3922 -97.55504,54.3922 -92.64221,0 -95.80046,-52.63761 -95.80046,-52.63761 z"
       id="path2996"
       style="fill:#232021;fill-opacity:1;stroke:#000000;stroke-width:1px;stroke-linecap:butt;stroke-linejoin:miter;stroke-opacity:1" />
    <path
       d="m 966.73823,592.11929 c 0,0 -219.34705,-63.59941 -213.39704,-246.15101 4.95747,-165.67834 212.40449,-227.29266 212.40449,-227.29266 l 0.99255,47.64213 c 0,0 -152.13164,77.13376 -145.90403,181.63562 -1.71275,107.47949 84.36628,160.79219 84.36628,160.79219 l 0,-152.85183 62.53029,1.98509 z"
       id="path2998"
       style="fill:#232020;fill-opacity:1;stroke:#000000;stroke-width:1px;stroke-linecap:butt;stroke-linejoin:miter;stroke-opacity:1" />
    <path
       d="m 1119.7812,237.78125 c -58.6237,0.20466 -71.9062,46.125 -71.9062,46.125 l 1.5625,266.71875 c 0,0 5.4486,43.28125 70.6875,43.28125 65.2389,0 71.8438,-40.78125 71.8438,-40.78125 l 0.3437,-270.75 c 0,0 -13.9076,-44.79841 -72.5313,-44.59375 z m 0.3438,43.15625 c 25.0773,-0.17177 29.4688,19.65625 29.4688,19.65625 l -0.6876,232.3125 c 0,0 -2.9203,18.25 -28.0624,18.25 -25.1422,0 -27.0626,-19.59375 -27.0626,-19.59375 l -0.4062,-232.25 c 0,0 1.6727,-18.20323 26.75,-18.375 z"
       id="path3000-7"
       style="fill:#231f20;fill-opacity:1;stroke:#000000;stroke-width:1.85248089px;stroke-linecap:butt;stroke-linejoin:miter;stroke-opacity:1" />
    <path
       d="m 1274.5321,588.34862 0,-477.2477 133.3486,188.09174 -1.4036,-179.66972 60.3578,0 0,471.63302 -61.7615,-1.40367 1.4037,-211.95413 -71.5872,-81.41284 1.4037,293.36697 z"
       id="path3020"
       style="fill:#231f20;fill-opacity:1;stroke:#000000;stroke-width:1px;stroke-linecap:butt;stroke-linejoin:miter;stroke-opacity:1" />
    <path
       d="m 1607.2018,120.9266 82.8166,0 c 0,0 -78.6056,82.81652 -75.7982,145.98166 2.8073,63.16513 8.422,61.76146 54.7431,143.17431 46.3211,81.41284 -43.5138,182.47706 -43.5138,182.47706 l -67.3761,-4.21101 c 0,0 62.5095,-67.59066 51.9358,-134.05046 -7.9741,-50.12022 -66.2447,-108.68956 -65.2707,-187.38991 0.9039,-73.03414 62.4633,-145.98165 62.4633,-145.98165 z"
       id="path3022"
       style="fill:#231f20;fill-opacity:1;stroke:#000000;stroke-width:1px;stroke-linecap:butt;stroke-linejoin:miter;stroke-opacity:1" />
    <path
       d="m 280.5,42.46875 c -1.09143,-0.0057 -2.20282,0.03349 -3.34375,0.0625 -31.34577,0.797085 -36.29404,14.601343 -56.5,17 -11.23454,1.333656 -11.47374,-1.063154 -33.875,-2.28125 -19.52196,-1.06153 -35.20915,2.695184 -35.625,4.75 -0.41586,2.054816 15.10042,13.530425 55.28125,26.5 11.7399,3.789405 17.33103,15.23183 20.875,26.125 3.3325,10.24317 -0.71875,30 -0.71875,30 0,0 37.88767,-0.72915 70.90625,-22.4375 11.09342,-7.29346 11.95202,-12.41115 22.28125,-21.59375 C 331.22073,90.424169 334.62332,88.394112 342.875,80.5 c 0.99319,-1.019109 0.90381,-4.081952 -0.34375,-5.3125 -1.55397,-1.456235 -1.04014,-1.180333 -2.3125,-2.3125 C 324.82277,59.175407 314.3342,42.64401 280.5,42.46875 z M 270.46875,75.1875 c 7.03126,0 12.71875,5.235653 12.71875,11.71875 0,6.483097 -5.68749,11.75 -12.71875,11.75 -7.03126,0 -12.71875,-5.266903 -12.71875,-11.75 0,-6.483097 5.68749,-11.71875 12.71875,-11.71875 z"
       id="path3024"
       style="fill:#231f20;fill-opacity:1;stroke:#000000;stroke-width:1px;stroke-linecap:butt;stroke-linejoin:miter;stroke-opacity:1" />
    <path
       d="m 232.25539,591.12675 c 0,0 -128.04769,-94.22542 -96.27681,-274.9348 15.88071,-111.16497 86.35136,-162.77728 86.35136,-162.77728 0,0 -75.02438,30.63486 -104.21716,157.81456 -36.088313,205.85506 114.14261,279.89752 114.14261,279.89752 z"
       id="path2987"
       style="fill:#007db7;fill-opacity:1;stroke:#000000;stroke-width:1px;stroke-linecap:butt;stroke-linejoin:miter;stroke-opacity:1" />
  </g>
</svg>
